<?xml version="1.0" standalone="no"?>
<!DOCTYPE svg PUBLIC "-//W3C//DTD SVG 20010904//EN"
 "http://www.w3.org/TR/2001/REC-SVG-20010904/DTD/svg10.dtd">
<svg version="1.0" xmlns="http://www.w3.org/2000/svg"
 width="512.000000pt" height="512.000000pt" viewBox="0 0 512.000000 512.000000"
 preserveAspectRatio="xMidYMid meet">

<g transform="translate(0.000000,512.000000) scale(0.100000,-0.100000)"
fill="#000000" stroke="none">
<path d="M2531 4986 c-8 -9 -10 -131 -9 -431 3 -385 4 -419 21 -429 12 -8 22
-8 35 0 16 10 17 44 20 429 2 432 1 445 -38 445 -10 0 -23 -6 -29 -14z"/>
<path d="M1272 4648 c-7 -7 -12 -17 -12 -24 0 -19 407 -718 424 -729 19 -12
49 4 54 28 3 14 -346 632 -400 710 -21 29 -46 35 -66 15z"/>
<path d="M3782 4633 c-54 -78 -403 -696 -400 -710 5 -24 35 -40 54 -28 18 12
424 709 424 729 0 17 -21 36 -41 36 -10 0 -26 -12 -37 -27z"/>
<path d="M2370 3785 c-407 -57 -759 -292 -979 -654 -149 -246 -216 -563 -180
-856 46 -381 253 -724 571 -948 l58 -41 0 -222 0 -223 -31 -3 c-64 -6 -64 -70
0 -76 l31 -3 0 -79 0 -79 -31 -3 c-64 -6 -64 -70 0 -76 26 -3 31 -7 31 -30 0
-21 21 -49 93 -120 l92 -92 74 0 c72 0 75 -1 118 -41 170 -157 516 -157 686 0
43 40 46 41 118 41 l74 0 93 93 92 92 0 67 0 67 31 3 c64 6 64 70 0 76 l-31 3
0 79 0 79 31 3 c64 6 64 70 0 76 l-31 3 0 182 0 183 77 54 c222 158 410 416
497 683 118 361 70 787 -125 1108 -291 478 -813 730 -1359 654z m435 -90 c250
-51 459 -162 641 -337 407 -393 509 -998 252 -1500 -92 -180 -242 -350 -416
-472 l-82 -58 0 -124 0 -124 -640 0 -640 0 0 124 0 124 -82 58 c-479 335 -672
920 -486 1469 154 455 561 787 1044 854 95 14 313 6 409 -14z m395 -2740 l0
-45 -42 0 c-24 0 -295 -14 -603 -30 -308 -16 -577 -30 -597 -30 l-38 0 0 75 0
75 640 0 640 0 0 -45z m0 -205 l0 -80 -42 0 c-24 0 -295 -14 -603 -30 -308
-16 -577 -30 -597 -30 l-38 0 0 80 0 80 63 1 c34 0 287 13 562 28 275 16 535
29 578 30 l77 1 0 -80z m0 -207 c0 -45 -3 -51 -67 -115 l-67 -68 -505 0 -505
0 -68 67 c-88 87 -89 103 -5 104 34 0 287 13 562 28 275 16 535 29 578 30 l77
1 0 -47z m-400 -283 c-98 -75 -382 -75 -480 0 -25 19 -23 20 240 20 263 0 265
-1 240 -20z"/>
<path d="M2346 3313 c-46 -13 -96 -57 -121 -106 -14 -28 -25 -56 -25 -63 0 -9
-8 -10 -32 -3 -61 18 -160 -10 -211 -59 -49 -46 -71 -100 -73 -176 l-1 -68
-39 -18 c-71 -32 -124 -110 -124 -183 0 -40 45 -134 71 -148 19 -10 19 -10 0
-38 -41 -57 -39 -121 4 -185 23 -34 24 -41 14 -82 -23 -92 14 -216 86 -289 47
-46 126 -84 194 -92 38 -4 52 -11 57 -25 11 -36 69 -91 119 -114 89 -42 188
-23 263 49 l32 31 33 -31 c74 -72 173 -91 262 -49 50 23 108 78 119 114 5 14
19 21 57 25 68 8 147 46 194 92 73 73 109 197 86 291 -11 42 -10 49 7 68 48
54 53 142 12 198 -11 15 -16 28 -10 28 20 0 69 82 76 127 13 87 -38 177 -122
214 l-41 19 5 50 c8 85 -46 188 -119 226 -48 24 -124 36 -163 26 -34 -10 -35
-9 -42 21 -9 45 -45 94 -91 125 -53 37 -151 39 -203 3 -19 -13 -41 -31 -47
-39 -12 -14 -14 -14 -25 0 -41 49 -140 79 -202 61z m126 -100 c43 -39 48 -64
48 -253 0 -201 -6 -227 -62 -256 -17 -9 -51 -19 -76 -23 -51 -7 -74 -30 -56
-58 20 -32 84 -28 177 12 16 7 17 -6 17 -187 0 -216 -1 -220 -65 -242 -44 -16
-61 -35 -52 -60 10 -24 35 -31 79 -19 l39 11 -3 -159 c-3 -172 -7 -185 -72
-233 -39 -29 -133 -29 -172 0 -52 38 -68 70 -69 133 0 48 5 65 29 100 23 33
28 46 19 59 -15 24 -41 26 -65 5 -26 -23 -68 -110 -68 -142 0 -21 -3 -23 -37
-16 -83 15 -147 66 -182 145 -27 60 -26 123 3 185 28 60 66 97 126 124 80 37
151 24 262 -47 22 -13 32 -14 45 -6 45 28 10 77 -87 123 -114 54 -264 27 -354
-64 -39 -39 -55 -36 -56 7 0 46 23 69 93 92 22 7 33 34 21 53 -5 8 -31 22 -58
31 -62 21 -91 58 -91 117 0 35 6 50 29 74 43 44 86 50 122 15 80 -75 216 -87
202 -17 -3 17 -23 26 -80 38 -36 7 -88 52 -104 92 -40 93 21 200 124 219 46 9
112 -19 137 -56 31 -47 91 -82 142 -83 33 -2 48 3 57 16 16 25 -2 48 -53 63
-54 16 -78 38 -92 85 -31 101 106 192 183 122z m324 -4 c74 -69 39 -186 -60
-206 -82 -17 -74 -79 9 -76 55 2 114 36 141 83 23 37 89 65 136 56 76 -14 138
-84 138 -156 0 -67 -58 -143 -118 -155 -57 -12 -77 -21 -80 -38 -14 -70 122
-58 202 17 36 35 79 29 122 -15 24 -25 29 -38 28 -80 -1 -61 -36 -104 -97
-116 -47 -10 -68 -34 -51 -60 6 -10 22 -20 35 -23 61 -13 98 -75 70 -119 -7
-11 -17 -6 -47 24 -90 91 -240 118 -354 64 -97 -46 -132 -95 -87 -123 13 -8
23 -7 45 6 111 71 182 84 262 47 60 -27 98 -64 126 -124 66 -138 -23 -301
-179 -330 -34 -7 -37 -5 -37 16 0 32 -42 119 -68 142 -24 21 -50 19 -65 -5 -9
-13 -4 -26 19 -59 24 -35 29 -52 29 -100 -1 -63 -17 -95 -69 -133 -39 -29
-133 -29 -172 0 -65 48 -69 61 -72 233 l-3 159 39 -11 c44 -12 69 -5 79 19 9
25 -8 44 -52 60 -64 22 -65 26 -65 242 0 181 1 194 18 187 92 -40 156 -44 176
-12 18 28 -5 51 -56 58 -61 9 -105 33 -123 69 -23 45 -22 372 3 420 33 68 126
88 178 39z"/>
<path d="M352 3728 c-22 -22 -13 -47 26 -72 117 -76 686 -397 699 -394 25 5
40 35 28 54 -12 19 -709 424 -729 424 -6 0 -17 -5 -24 -12z"/>
<path d="M4375 3536 c-192 -112 -354 -211 -360 -220 -13 -20 4 -50 31 -53 23
-3 713 396 728 420 14 21 -3 51 -30 54 -10 1 -176 -90 -369 -201z"/>
<path d="M12 2468 c-16 -16 -15 -43 2 -57 9 -8 131 -10 431 -9 385 3 419 4
429 21 8 12 8 22 0 35 -10 16 -44 17 -430 20 -318 2 -423 -1 -432 -10z"/>
<path d="M4252 2468 c-16 -16 -15 -43 2 -57 9 -8 131 -10 431 -9 385 3 419 4
429 21 8 12 8 22 0 35 -10 16 -44 17 -430 20 -318 2 -423 -1 -432 -10z"/>
<path d="M706 1417 c-192 -112 -354 -211 -360 -220 -13 -20 2 -50 26 -55 18
-4 719 399 733 422 13 20 -4 50 -31 53 -10 1 -176 -89 -368 -200z"/>
<path d="M4022 1608 c-16 -16 -15 -43 1 -56 37 -30 713 -412 725 -410 24 5 39
35 26 55 -12 20 -702 422 -724 423 -9 0 -21 -5 -28 -12z"/>
</g>
</svg>
